<svg width="57" height="30" viewBox="0 0 57 30" fill="none" xmlns="http://www.w3.org/2000/svg">
<path d="M49.8286 22.9613L48 28.9613H48.5714L50.1714 23.7306L50.9714 26.4998H49.8286L49.7143 27.1152H51.2L51.7714 28.9613H56L54.0571 22.9613H49.8286Z" fill="url(#paint0_linear_22_4)"/>
<path d="M6.21859 28.9613V23.3754H8.60141C9.66391 23.3754 10.1952 23.822 10.1952 24.7152C10.1952 25.4418 9.67562 25.9796 8.63656 26.3285L10.5545 28.9613H9.60141L7.82406 26.4496V25.977C8.89177 25.8077 9.42562 25.3975 9.42562 24.7465C9.42562 24.2309 9.12875 23.9731 8.535 23.9731H6.94125V28.9613H6.21859ZM11.9837 28.9613H11.2337L13.6048 23.3754H14.4056L16.7884 28.9613H15.9877L15.265 27.2035H13.4173L13.6166 26.6176H15.0228L13.9798 24.0863L11.9837 28.9613ZM18.0302 28.9613V23.3754H20.2958C21.4364 23.3754 22.0067 23.8741 22.0067 24.8715C22.0067 25.9574 21.2268 26.6202 19.6669 26.8598L19.5184 26.2504C20.6643 26.0811 21.2372 25.6319 21.2372 24.9027C21.2372 24.2829 20.9012 23.9731 20.2294 23.9731H18.7528V28.9613H18.0302ZM24.2875 23.3754V28.9613H23.5648V23.3754H24.2875ZM28.248 28.3754C29.6152 28.3754 30.2987 27.5889 30.2987 26.016C30.2987 24.6462 29.6152 23.9613 28.248 23.9613H26.9394V28.3754H28.248ZM26.2167 28.9613V23.3754H28.248C30.0969 23.3754 31.0214 24.2556 31.0214 26.016C31.0214 27.9796 30.0969 28.9613 28.248 28.9613H26.2167ZM33.3959 23.3754V28.9613H32.6733V23.3754H33.3959ZM35.3252 28.9613V23.3754H36.0478L39.4658 27.8754V23.3754H40.1494V28.9613H39.4267L36.0088 24.4223V28.9613H35.3252ZM41.9614 28.9613V23.3754H42.6841V25.8363H45.9848V23.3754H46.7075V28.9613H45.9848V26.4223H42.6841V28.9613H41.9614Z" fill="#25D985"/>
<g filter="url(#filter0_d_22_4)">
<path fill-rule="evenodd" clip-rule="evenodd" d="M7.25414 0.116541L7 0V4.57458L7.25414 4.69149V0.116541ZM7.25414 16.2652H7V21.0939H7.25414V16.2652ZM7.50829 21.0939V16.2652H8.01657V21.0939H7.50829ZM7.50829 4.80839V0.233082L8.01657 0.466162V5.0422L7.50829 4.80839ZM8.27071 16.2652V21.0939H8.77901V16.2652H8.27071ZM8.27071 0.582703V5.15911L8.77901 5.39292V0.815788L8.27071 0.582703ZM9.03315 21.0939V16.2652H9.54144V21.0939H9.03315ZM9.03315 5.50983V0.932329L9.54144 1.16541V5.74364L9.03315 5.50983ZM9.79558 16.2652V21.0939H10.3039V16.2652H9.79558ZM9.79558 1.28195V5.86055L10.3039 6.09436V1.51503L9.79558 1.28195ZM10.558 21.0939V16.2652H10.8122V21.0939H10.558ZM10.558 6.21126V1.63157L10.8122 1.74812V6.32817L10.558 6.21126ZM36.4807 13.5188L30.3812 10.7218V15.3299L32.4144 16.2652H30.3812V21.0939H36.4807V13.5188ZM24.7901 8.15787V12.758L17.4199 9.36773V4.77818L24.7901 8.15787ZM24.7901 16.2652H17.4199V21.0939H24.7901V16.2652ZM42.9613 21.0939H53L42.9613 16.4906V21.0939Z" fill="#25D985"/>
</g>
<defs>
<filter id="filter0_d_22_4" x="3" y="0" width="54" height="29.0939" filterUnits="userSpaceOnUse" color-interpolation-filters="sRGB">
<feFlood flood-opacity="0" result="BackgroundImageFix"/>
<feColorMatrix in="SourceAlpha" type="matrix" values="0 0 0 0 0 0 0 0 0 0 0 0 0 0 0 0 0 0 127 0" result="hardAlpha"/>
<feOffset dy="4"/>
<feGaussianBlur stdDeviation="2"/>
<feComposite in2="hardAlpha" operator="out"/>
<feColorMatrix type="matrix" values="0 0 0 0 0 0 0 0 0 0 0 0 0 0 0 0 0 0 0.25 0"/>
<feBlend mode="normal" in2="BackgroundImageFix" result="effect1_dropShadow_22_4"/>
<feBlend mode="normal" in="SourceGraphic" in2="effect1_dropShadow_22_4" result="shape"/>
</filter>
<linearGradient id="paint0_linear_22_4" x1="49.5" y1="22.9613" x2="56" y2="28.9613" gradientUnits="userSpaceOnUse">
<stop stop-color="#25D985"/>
<stop offset="1" stop-color="#25D985" stop-opacity="0"/>
</linearGradient>
</defs>
</svg>
